HIERARCHY
ROOT Hips
{
	OFFSET -3.958830 18.904000 13.208200
	CHANNELS 6 Xposition Yposition Zposition Zrotation Yrotation Xrotation 
	JOINT LHipJoint
	{
		OFFSET 0.000000 0.000000 0.000000
		CHANNELS 3 Zrotation Yrotation Xrotation
		JOINT LeftUpLeg
		{
			OFFSET 1.800000 -1.400000 0.085000
			CHANNELS 3 Zrotation Yrotation Xrotation
			JOINT LeftLeg
			{
				OFFSET 2.215000 -6.000000 0.000000
				CHANNELS 3 Zrotation Yrotation Xrotation
				JOINT LeftFoot
				{
					OFFSET 2.500000 -6.900000 0.000000
					CHANNELS 3 Zrotation Yrotation Xrotation
					JOINT LeftToeBase
					{
						OFFSET 0.200000 -0.500000 1.950000
						CHANNELS 3 Zrotation Yrotation Xrotation
						End Site
						{
							OFFSET 0.000000 0.000000 0.000000
						}
					}
				}
			}
		}
	}
	JOINT RHipJoint
	{
		OFFSET 0.000000 0.000000 0.000000
		CHANNELS 3 Zrotation Yrotation Xrotation
		JOINT RightUpLeg
		{
			OFFSET -1.800000 -1.400000 0.085000
			CHANNELS 3 Zrotation Yrotation Xrotation
			JOINT RightLeg
			{
				OFFSET -2.215000 -6.000000 0.000000
				CHANNELS 3 Zrotation Yrotation Xrotation
				JOINT RightFoot
				{
					OFFSET -2.500000 -6.900000 0.000000
					CHANNELS 3 Zrotation Yrotation Xrotation
					JOINT RightToeBase
					{
						OFFSET -0.200000 -0.500000 1.950000
						CHANNELS 3 Zrotation Yrotation Xrotation
						End Site
						{
							OFFSET 0.000000 0.000000 0.000000
						}
					}
				}
			}
		}
	}
	JOINT LowerBack
	{
		OFFSET 0.000000 0.000000 0.000000
		CHANNELS 3 Zrotation Yrotation Xrotation
		JOINT Spine
		{
			OFFSET -0.087000 1.940000 -0.288900
			CHANNELS 3 Zrotation Yrotation Xrotation
			JOINT Spine1
			{
				OFFSET 0.000000 1.950000 0.060000
				CHANNELS 3 Zrotation Yrotation Xrotation
				JOINT Neck
				{
					OFFSET 0.000000 0.000000 0.000000
					CHANNELS 3 Zrotation Yrotation Xrotation
					JOINT Neck1
					{
						OFFSET 0.000000 1.600000 0.340000
						CHANNELS 3 Zrotation Yrotation Xrotation
						JOINT Head
						{
							OFFSET 0.000000 1.667000 -0.240000
							CHANNELS 3 Zrotation Yrotation Xrotation
							End Site
							{
								OFFSET 0.000000 0.000000 0.000000
							}
						}
					}
				}
				JOINT LeftShoulder
				{
					OFFSET 0.000000 0.000000 0.000000
					CHANNELS 3 Zrotation Yrotation Xrotation
					JOINT LeftArm
					{
						OFFSET 2.700000 1.550000 -0.730000
						CHANNELS 3 Zrotation Yrotation Xrotation
						JOINT LeftForeArm
						{
							OFFSET 5.450000 0.000000 0.000000
							CHANNELS 3 Zrotation Yrotation Xrotation
							JOINT LeftHand
							{
								OFFSET 3.450000 0.000000 0.000000
								CHANNELS 3 Zrotation Yrotation Xrotation
								JOINT LeftHandIndex1
								{
									OFFSET 0.750000 0.000000 0.000000
									CHANNELS 3 Zrotation Yrotation Xrotation
									End Site
									{
										OFFSET 0.000000 0.000000 0.000000
									}
								}
							}
						}
					}
				}
				JOINT RightShoulder
				{
					OFFSET 0.000000 0.000000 0.000000
					CHANNELS 3 Zrotation Yrotation Xrotation
					JOINT RightArm
					{
						OFFSET -2.700000 1.550000 -0.730000
						CHANNELS 3 Zrotation Yrotation Xrotation
						JOINT RightForeArm
						{
							OFFSET -5.450000 0.000000 0.000000
							CHANNELS 3 Zrotation Yrotation Xrotation
							JOINT RightHand
							{
								OFFSET -3.450000 0.000000 0.000000
								CHANNELS 3 Zrotation Yrotation Xrotation
								JOINT RightHandIndex1
								{
									OFFSET -0.750000 0.000000 0.000000
									CHANNELS 3 Zrotation Yrotation Xrotation
									End Site
									{
										OFFSET 0.000000 0.000000 0.000000
									}
								}
							}
						}
					}
				}
			}
		}
	}
}
MOTION
Frames: 4
Frame Time: 0.016667
0.742380 17.239390 -0.765360 -0.178274 4.761639 8.844144 -14.817702 12.263980 3.292810 7.754009 -2.700578 -15.748228 -10.006568 3.625298 -0.783719 0.008637 3.474636 3.551905 -0.390320 -0.619480 -0.325200 18.560977 -11.344890 2.480264 -13.014347 1.219248 -15.266608 -2.708809 -2.400452 4.405997 0.225508 -3.096865 3.388108 -0.373390 0.580510 0.089960 -4.564462 0.645057 -7.121171 10.699598 1.673956 -4.641444 -6.389987 0.547448 -6.873144 0.931250 -2.381342 -8.077446 -4.107885 0.238376 29.059001 -1.218380 -1.085760 18.999110 -20.798018 3.216753 2.700217 -66.962001 6.597923 -5.605410 1.823307 -10.387143 -1.498880 -4.146845 2.824644 -0.054040 0.333200 -0.388040 0.068850 17.306704 0.884755 4.010373 73.950081 -3.754096 -5.232769 0.746831 7.988964 -0.812681 2.800630 -1.269060 -0.213560 -0.007500 0.231020 0.107890 
0.736760 17.236640 -0.767200 -0.127826 4.688308 8.591312 -14.816063 12.271156 3.285539 7.834305 -2.650701 -15.468477 -10.105090 3.660614 -0.745938 0.015088 3.500270 3.534964 -0.377310 -0.599410 -0.318400 18.564264 -11.353315 2.460349 -13.084441 1.159981 -15.129733 -2.798735 -2.416025 4.585604 0.217484 -3.108031 3.374534 -0.362070 0.570190 0.096480 -4.570938 0.633615 -7.102988 10.734339 1.602232 -4.606342 -6.482989 0.482695 -6.369131 0.943602 -2.460604 -8.089070 -4.280864 0.358699 29.304229 -1.147930 -1.017410 18.506310 -20.981593 2.560777 2.781689 -66.945484 5.887611 -5.175712 2.164908 -9.778843 -1.461789 -4.147897 2.844157 -0.057080 0.328420 -0.379160 0.066900 17.512502 1.568232 4.052826 74.169253 -3.077589 -4.880261 0.193414 7.568056 -0.788693 2.804285 -1.283407 -0.202960 -0.012770 0.228150 0.109270 
0.725170 17.230670 -0.773240 -0.107609 4.536402 7.934766 -14.813044 12.280326 3.253278 8.002861 -2.520977 -14.809929 -10.142643 3.723822 -0.655082 0.009020 3.558892 3.516468 -0.354770 -0.562610 -0.317330 18.574604 -11.382172 2.416964 -13.098441 1.025936 -14.751078 -3.030609 -2.443988 4.967437 0.211187 -3.150044 3.362004 -0.330230 0.577960 0.094110 -4.588390 0.641265 -7.046773 10.767137 1.558162 -4.493481 -6.490049 0.484603 -4.976023 0.906332 -2.528530 -8.125917 -4.452022 0.594103 29.638956 -0.763730 -1.133530 17.742080 -21.427534 0.818379 3.029548 -67.020853 4.230075 -4.291461 2.896394 -8.490931 -1.382595 -4.159257 2.869558 -0.066060 0.335470 -0.383750 0.074690 18.179118 3.281320 4.183366 74.088091 -1.570692 -4.117848 -0.779494 6.590328 -0.720947 2.792619 -1.318035 -0.203390 0.002240 0.224310 0.112300 
0.712290 17.225750 -0.787560 -0.373049 4.307323 6.877145 -14.795242 12.305413 3.216583 8.521749 -2.318275 -13.887395 -10.064583 3.795124 -0.581257 0.007353 3.638740 3.489402 -0.312290 -0.501570 -0.298350 18.598731 -11.432346 2.357438 -12.786447 0.842614 -14.186930 -3.418288 -2.478758 5.683381 0.187968 -3.186155 3.344857 -0.288280 0.573900 0.098730 -4.646895 0.643301 -6.989675 11.443764 1.506135 -4.186191 -6.590085 0.515002 -2.821519 0.930900 -2.734746 -8.404917 -4.948411 0.827840 30.502023 -0.648100 -1.116850 16.364760 -22.214463 -2.222499 3.584993 -67.271376 1.880303 -3.087642 4.090960 -6.693740 -1.248256 -4.154686 2.909669 -0.064810 0.331950 -0.367920 0.088580 19.086913 6.404258 4.673063 73.778586 0.687322 -3.085786 -2.223185 5.251631 -0.587057 2.781724 -1.369673 -0.195990 0.020850 0.207860 0.117280 
